<svg width="45" height="45" viewBox="0 0 45 45" fill="none" xmlns="http://www.w3.org/2000/svg">
<rect x="0.691162" y="-3.05176e-05" width="44.3088" height="44.3088" rx="22.1544" fill="#424243"/>
<path d="M22.2138 19.3058C20.6401 19.3058 19.3653 20.5811 19.3653 22.1543C19.3653 23.7278 20.6406 25.0027 22.2138 25.0027C23.7873 25.0027 25.0622 23.7275 25.0622 22.1543C25.0622 20.5807 23.787 19.3058 22.2138 19.3058ZM22.2138 17.4069C24.8347 17.4069 26.9611 19.531 26.9611 22.1543C26.9611 24.7753 24.8371 26.9016 22.2138 26.9016C19.5928 26.9016 17.4664 24.7776 17.4664 22.1543C17.4664 19.5333 19.5904 17.4069 22.2138 17.4069ZM28.3854 17.1687C28.3854 17.824 27.8529 18.3556 27.1985 18.3556C26.5433 18.3556 26.0117 17.8231 26.0117 17.1687C26.0117 16.5143 26.544 15.9827 27.1985 15.9827C27.852 15.9819 28.3854 16.5143 28.3854 17.1687ZM22.2138 14.5585C19.8643 14.5585 19.4813 14.5647 18.3886 14.6133C17.6441 14.6483 17.145 14.7484 16.6813 14.9284C16.2693 15.0883 15.972 15.2791 15.6553 15.5958C15.3374 15.9137 15.1469 16.2102 14.9877 16.6225C14.8073 17.0872 14.7071 17.5855 14.6728 18.329C14.6237 19.3772 14.6179 19.7436 14.6179 22.1543C14.6179 24.5037 14.6242 24.8867 14.6728 25.9793C14.7078 26.7235 14.808 27.2233 14.9876 27.6859C15.1479 28.0986 15.3391 28.3965 15.6543 28.7117C15.9735 29.0305 16.2708 29.2216 16.6792 29.3792C17.1485 29.5607 17.6472 29.6609 18.3884 29.6952C19.4367 29.7443 19.8031 29.7501 22.2138 29.7501C24.5632 29.7501 24.9462 29.7438 26.0388 29.6952C26.7814 29.6603 27.2816 29.5598 27.7454 29.3803C28.1569 29.2206 28.4558 29.0287 28.7712 28.7137C29.0904 28.394 29.2812 28.0974 29.439 27.6881C29.62 27.2205 29.7204 26.7211 29.7547 25.9796C29.8038 24.9313 29.8096 24.5649 29.8096 22.1543C29.8096 19.8048 29.8033 19.4219 29.7547 18.3292C29.7197 17.5864 29.6192 17.0855 29.4396 16.6218C29.2801 16.2109 29.0886 15.9128 28.7722 15.5958C28.4537 15.2774 28.1581 15.0873 27.7455 14.9282C27.2811 14.7479 26.7821 14.6477 26.039 14.6134C24.9908 14.5642 24.6244 14.5585 22.2138 14.5585ZM22.2138 12.6595C24.7931 12.6595 25.1152 12.669 26.128 12.7165C27.1383 12.7632 27.8275 12.923 28.4328 13.158C29.0586 13.3993 29.5872 13.7253 30.1149 14.253C30.6419 14.7808 30.9679 15.3109 31.21 15.9352C31.4442 16.5397 31.6041 17.2297 31.6516 18.2401C31.6967 19.2528 31.7085 19.5749 31.7085 22.1543C31.7085 24.7337 31.699 25.0557 31.6516 26.0685C31.6048 27.0789 31.4442 27.768 31.21 28.3733C30.9687 28.9992 30.6419 29.5277 30.1149 30.0555C29.5872 30.5825 29.0563 30.9084 28.4328 31.1505C27.8275 31.3848 27.1383 31.5446 26.128 31.5921C25.1152 31.6372 24.7931 31.649 22.2138 31.649C19.6343 31.649 19.3123 31.6395 18.2995 31.5921C17.2891 31.5453 16.6008 31.3848 15.9947 31.1505C15.3696 30.9092 14.8403 30.5825 14.3125 30.0555C13.7848 29.5277 13.4596 28.9969 13.2175 28.3733C12.9825 27.768 12.8234 27.0789 12.776 26.0685C12.7309 25.0557 12.719 24.7337 12.719 22.1543C12.719 19.5749 12.7285 19.2528 12.776 18.2401C12.8226 17.2289 12.9825 16.5405 13.2175 15.9352C13.4588 15.3101 13.7848 14.7808 14.3125 14.253C14.8403 13.7253 15.3704 13.4001 15.9947 13.158C16.6 12.923 17.2883 12.764 18.2995 12.7165C19.3123 12.6714 19.6343 12.6595 22.2138 12.6595Z" fill="white"/>
</svg>
