<svg width="45" height="45" viewBox="0 0 45 45" fill="none" xmlns="http://www.w3.org/2000/svg">
<rect x="0.460693" y="-3.05176e-05" width="44.3088" height="44.3088" rx="22.1544" fill="#424243"/>
<path d="M17.1783 15.5082C17.178 16.2814 16.7089 16.9771 15.9923 17.2674C15.2757 17.5577 14.4546 17.3845 13.9163 16.8295C13.378 16.2745 13.2299 15.4486 13.5418 14.7412C13.8538 14.0337 14.5635 13.5861 15.3363 13.6093C16.3628 13.6401 17.1788 14.4813 17.1783 15.5082ZM17.2353 18.8124H13.4374V30.6998H17.2353V18.8124ZM23.236 18.8124H19.4571V30.6998H23.198V24.4617C23.198 20.9867 27.727 20.6638 27.727 24.4617V30.6998H31.4774V23.1704C31.4774 17.3122 24.7741 17.5306 23.198 20.4075L23.236 18.8124Z" fill="white"/>
</svg>
